<svg width="18" height="18" viewBox="0 0 18 18" fill="none" xmlns="http://www.w3.org/2000/svg">
<g clip-path="url(#clip0_6402_6438)">
<path d="M1.62134 5.47113V12.5328C1.62134 12.9867 1.85913 13.3975 2.25545 13.628L8.37314 17.1589C8.76225 17.3823 9.24504 17.3823 9.63415 17.1589L15.7518 13.628C16.141 13.4047 16.386 12.9867 16.386 12.5328V5.47113C16.386 5.01716 16.1482 4.60643 15.7518 4.37585L9.63415 0.845024C9.24504 0.621646 8.76225 0.621646 8.37314 0.845024L2.25545 4.37585C1.86633 4.59923 1.62854 5.01716 1.62854 5.47113H1.62134Z" fill="#213147"/>
<path d="M10.3332 10.3711L9.46128 12.7634C9.43966 12.8282 9.43966 12.9003 9.46128 12.9724L10.9601 17.0869L12.6967 16.0853L10.6142 10.3711C10.5638 10.2414 10.3836 10.2414 10.3332 10.3711Z" fill="#12AAFF"/>
<path d="M12.0842 6.35027C12.0337 6.22056 11.8536 6.22056 11.8031 6.35027L10.9313 8.74258C10.9096 8.80743 10.9096 8.87949 10.9313 8.95155L13.3884 15.6889L15.125 14.6873L12.0842 6.35747V6.35027Z" fill="#12AAFF"/>
<path d="M9.0001 1.11164C9.04333 1.11164 9.08657 1.12606 9.1226 1.14767L15.7375 4.96673C15.8168 5.00996 15.86 5.09643 15.86 5.1829V12.821C15.86 12.9075 15.8095 12.994 15.7375 13.0372L9.1226 16.8562C9.08657 16.8779 9.04333 16.8923 9.0001 16.8923C8.95687 16.8923 8.91363 16.8779 8.8776 16.8562L2.26271 13.0372C2.18345 12.994 2.14021 12.9075 2.14021 12.821V5.1757C2.14021 5.08923 2.19065 5.00276 2.26271 4.95952L8.8776 1.14047C8.91363 1.11885 8.95687 1.10444 9.0001 1.10444V1.11164ZM9.0001 -0.00524902C8.76231 -0.00524902 8.53173 0.0523971 8.31555 0.174895L1.70066 3.99395C1.27552 4.23895 1.01611 4.6857 1.01611 5.1757V12.8138C1.01611 13.3038 1.27552 13.7506 1.70066 13.9956L8.31555 17.8146C8.52452 17.9371 8.76231 17.9948 9.0001 17.9948C9.23789 17.9948 9.46848 17.9371 9.68465 17.8146L16.2995 13.9956C16.7247 13.7506 16.9841 13.3038 16.9841 12.8138V5.1757C16.9841 4.6857 16.7247 4.23895 16.2995 3.99395L9.67744 0.174895C9.46848 0.0523971 9.23069 -0.00524902 8.99289 -0.00524902H9.0001Z" fill="#9DCCED"/>
<path d="M4.6189 15.6962L5.23139 14.0244L6.45637 15.0404L5.31065 16.0925L4.6189 15.6962Z" fill="#213147"/>
<path d="M8.43797 4.63526H6.75903C6.63653 4.63526 6.52124 4.71452 6.478 4.82981L2.88232 14.6873L4.61891 15.6889L8.58208 4.82981C8.61811 4.72893 8.54606 4.62805 8.44518 4.62805L8.43797 4.63526Z" fill="white"/>
<path d="M11.3778 4.63526H9.69886C9.57636 4.63526 9.46107 4.71452 9.41783 4.82981L5.31055 16.0852L7.04714 17.0868L11.5147 4.82981C11.5507 4.72893 11.4787 4.62805 11.3778 4.62805V4.63526Z" fill="white"/>
</g>
<defs>
<clipPath id="clip0_6402_6438">
<rect width="18" height="18" fill="white"/>
</clipPath>
</defs>
</svg>
