<svg width="20" height="20" viewBox="0 0 20 20" fill="none" xmlns="http://www.w3.org/2000/svg">
<g clip-path="url(#clip0_6402_6026)">
<path d="M10 20C15.5228 20 20 15.5228 20 10C20 4.47715 15.5228 0 10 0C4.47715 0 0 4.47715 0 10C0 15.5228 4.47715 20 10 20Z" fill="#E84142"/>
<path d="M15.607 4.03009H4.38098V14.24H15.607V4.03009Z" fill="white"/>
<path fill-rule="evenodd" clip-rule="evenodd" d="M19.0849 10.0061C19.0849 15.0235 15.0175 19.0909 10 19.0909C4.98259 19.0909 0.915161 15.0235 0.915161 10.0061C0.915161 4.98863 4.98259 0.921204 10 0.921204C15.0175 0.921204 19.0849 4.98863 19.0849 10.0061ZM7.42563 13.6214H5.66251C5.29203 13.6214 5.10903 13.6214 4.99744 13.55C4.87692 13.4719 4.80328 13.3424 4.79435 13.1996C4.78765 13.0679 4.87916 12.9072 5.06216 12.5858L9.41552 4.91243C9.60076 4.58659 9.69449 4.42367 9.81277 4.36341C9.93998 4.29869 10.0918 4.29869 10.219 4.36341C10.3372 4.42367 10.431 4.58659 10.6162 4.91243L11.5112 6.47469L11.5157 6.48266C11.7158 6.83223 11.8173 7.0095 11.8616 7.19555C11.9107 7.39865 11.9107 7.6129 11.8616 7.816C11.8169 8.00346 11.7165 8.18202 11.5134 8.53687L9.2267 12.5791L9.22078 12.5895C9.01939 12.9419 8.91733 13.1206 8.77588 13.2553C8.62188 13.4027 8.43664 13.5097 8.23354 13.5701C8.0483 13.6214 7.84075 13.6214 7.42563 13.6214ZM11.8781 13.6214H14.4044C14.7771 13.6214 14.9646 13.6214 15.0763 13.5478C15.1968 13.4697 15.2726 13.3379 15.2794 13.1952C15.2858 13.0678 15.1963 12.9133 15.0209 12.6106C15.0148 12.6003 15.0088 12.5898 15.0026 12.5792L13.7372 10.4143L13.7228 10.39C13.5449 10.0893 13.4552 9.9374 13.3399 9.87871C13.2127 9.81398 13.0631 9.81398 12.936 9.87871C12.8199 9.93896 12.7262 10.0974 12.5409 10.4166L11.28 12.5814L11.2756 12.5889C11.0911 12.9075 10.9988 13.0667 11.0055 13.1974C11.0144 13.3402 11.088 13.4719 11.2085 13.55C11.3179 13.6214 11.5054 13.6214 11.8781 13.6214Z" fill="#E84142"/>
</g>
<defs>
<clipPath id="clip0_6402_6026">
<rect width="20" height="20" rx="10" fill="white"/>
</clipPath>
</defs>
</svg>
