<svg xmlns="http://www.w3.org/2000/svg" viewBox="0 0 1024 1024">
  <defs>
    <!-- 定义一个渐变 -->
    <linearGradient id="gold-gradient" x1="0%" y1="0%" x2="100%" y2="100%">
      <stop offset="0%" stop-color="#856220"/>
      <stop offset="25%" stop-color="#F4E683"/>
      <stop offset="50%" stop-color="#BF923D"/>
      <stop offset="75%" stop-color="#F1EA82"/>
      <stop offset="100%" stop-color="#4E341B"/>
    </linearGradient>
  </defs>

  <!-- 引用相同的渐变 -->
  <path d="M819.2 887.466667H136.533333V204.8h341.333334V68.266667H136.533333a136.533333 136.533333 0 0 0-136.533333 136.533333v682.666667a136.533333 136.533333 0 0 0 136.533333 136.533333h682.666667a136.533333 136.533333 0 0 0 136.533333-136.533333V546.133333h-136.533333v341.333334z" fill="url(#gold-gradient)"></path>

  <!-- 另一个路径也使用同样的渐变 -->
  <path d="M955.733333 0h-273.066666a68.266667 68.266667 0 0 0 0 136.533333h108.202666L421.2736 506.129067a68.266667 68.266667 0 1 0 96.597333 96.597333L887.466667 233.130667V341.333333a68.266667 68.266667 0 0 0 136.533333 0V68.266667a68.266667 68.266667 0 0 0-68.266667-68.266667z" fill="url(#gold-gradient)"></path>
</svg>
