<svg width="20" height="20" viewBox="0 0 20 20" fill="none" xmlns="http://www.w3.org/2000/svg">
<g clip-path="url(#clip0_6402_6011)">
<path d="M10 20C15.5228 20 20 15.5228 20 10C20 4.47715 15.5228 0 10 0C4.47715 0 0 4.47715 0 10C0 15.5228 4.47715 20 10 20Z" fill="#FF0420"/>
<path d="M7.08403 12.656C6.48803 12.656 6.00003 12.516 5.62003 12.236C5.24403 11.952 5.05603 11.544 5.05603 11.02C5.05603 10.908 5.06803 10.776 5.09203 10.616C5.15603 10.256 5.24803 9.82401 5.36803 9.31601C5.70803 7.94001 6.58803 7.25201 8.00403 7.25201C8.38803 7.25201 8.73603 7.31601 9.04003 7.44801C9.34403 7.57201 9.58403 7.76401 9.76003 8.02001C9.93603 8.27201 10.024 8.57201 10.024 8.92001C10.024 9.02401 10.012 9.15601 9.98803 9.31601C9.91203 9.76001 9.82403 10.196 9.71603 10.616C9.54003 11.3 9.24003 11.816 8.80803 12.156C8.38003 12.492 7.80403 12.656 7.08403 12.656ZM7.19203 11.576C7.47203 11.576 7.70803 11.492 7.90403 11.328C8.10403 11.164 8.24803 10.912 8.33203 10.568C8.44803 10.096 8.53603 9.68801 8.59603 9.33601C8.61603 9.23201 8.62803 9.12401 8.62803 9.01201C8.62803 8.55601 8.39203 8.32801 7.91603 8.32801C7.63603 8.32801 7.39603 8.41201 7.19603 8.57601C7.00003 8.74001 6.86003 8.99201 6.77603 9.33601C6.68403 9.67201 6.59603 10.08 6.50403 10.568C6.48403 10.668 6.47203 10.772 6.47203 10.884C6.46803 11.348 6.71203 11.576 7.19203 11.576Z" fill="white"/>
<path d="M10.372 12.584C10.316 12.584 10.276 12.568 10.244 12.532C10.22 12.492 10.212 12.448 10.22 12.396L11.256 7.516C11.264 7.46 11.292 7.416 11.34 7.38C11.384 7.344 11.432 7.328 11.484 7.328H13.48C14.036 7.328 14.48 7.444 14.816 7.672C15.156 7.904 15.328 8.236 15.328 8.672C15.328 8.796 15.312 8.928 15.284 9.064C15.16 9.64 14.908 10.064 14.524 10.34C14.148 10.616 13.632 10.752 12.976 10.752H11.964L11.62 12.396C11.608 12.452 11.584 12.496 11.536 12.532C11.492 12.568 11.444 12.584 11.392 12.584H10.372ZM13.028 9.716C13.24 9.716 13.42 9.66 13.576 9.544C13.736 9.428 13.84 9.264 13.892 9.048C13.908 8.964 13.916 8.888 13.916 8.824C13.916 8.68 13.872 8.568 13.788 8.492C13.704 8.412 13.556 8.372 13.352 8.372H12.452L12.168 9.716H13.028Z" fill="white"/>
</g>
<defs>
<clipPath id="clip0_6402_6011">
<rect width="20" height="20" rx="10" fill="white"/>
</clipPath>
</defs>
</svg>
