<svg width="1284" height="330" viewBox="0 0 1284 330" fill="none" xmlns="http://www.w3.org/2000/svg">
<path d="M164.797 0C73.7877 0 0 73.7792 0 164.782C0 255.796 73.7877 329.573 164.797 329.573C255.811 329.573 329.589 255.796 329.589 164.782C329.589 73.7817 255.811 0.00245309 164.797 0ZM267.177 228.64C265.609 235.516 258.546 241.144 251.488 241.144H215.5C208.447 241.144 200.494 235.794 197.839 229.264L178.007 180.516C175.348 173.978 170.604 168.633 164.797 168.633C158.985 168.633 154.246 173.978 151.586 180.516L131.75 229.264C129.095 235.794 121.152 241.144 114.089 241.144H78.0955C71.0425 241.144 63.9748 235.521 62.395 228.645C62.395 228.645 58.8672 213.161 58.8672 164.782C58.8672 116.407 62.395 100.928 62.395 100.928C63.9797 94.054 71.0425 88.4266 78.0955 88.4266H120.499C127.557 88.4266 135.079 93.9313 137.22 100.653L152.519 148.714C154.67 155.435 159.289 160.928 164.789 160.928C170.285 160.928 174.909 155.435 177.051 148.714L192.349 100.653C194.495 93.9313 202.017 88.4266 209.07 88.4266H251.474C258.532 88.4266 265.594 94.0564 267.162 100.932C267.177 100.932 270.727 116.483 270.727 164.782C270.731 213.093 267.177 228.64 267.177 228.64Z" fill="white"/>
<path d="M386.214 95.2852H409.814V235.285H386.214V95.2852ZM400.214 116.085V95.2852H428.414C438.548 95.2852 447.348 97.0852 454.814 100.685C462.414 104.152 468.281 109.152 472.414 115.685C476.548 122.085 478.614 129.752 478.614 138.685C478.614 147.619 476.548 155.352 472.414 161.885C468.281 168.419 462.414 173.485 454.814 177.085C447.348 180.552 438.548 182.285 428.414 182.285H400.214V161.485H428.414C436.548 161.485 443.081 159.552 448.014 155.685C452.948 151.819 455.414 146.152 455.414 138.685C455.414 131.219 452.948 125.619 448.014 121.885C443.081 118.019 436.548 116.085 428.414 116.085H400.214Z" fill="white"/>
<path d="M533.985 237.285C524.651 237.285 516.385 235.285 509.185 231.285C502.118 227.285 496.651 221.685 492.785 214.485C488.918 207.285 486.985 198.885 486.985 189.285C486.985 179.552 488.918 171.085 492.785 163.885C496.785 156.685 502.385 151.152 509.585 147.285C516.785 143.285 525.251 141.285 534.985 141.285C544.718 141.285 552.985 143.152 559.785 146.885C566.585 150.619 571.785 156.019 575.385 163.085C579.118 170.019 580.985 178.419 580.985 188.285C580.985 189.352 580.918 190.485 580.785 191.685C580.785 192.885 580.718 193.752 580.585 194.285H499.785V179.485H562.185L555.585 188.685C555.985 187.885 556.385 186.819 556.785 185.485C557.318 184.019 557.585 182.819 557.585 181.885C557.585 176.952 556.585 172.685 554.585 169.085C552.718 165.485 550.051 162.685 546.585 160.685C543.251 158.685 539.318 157.685 534.785 157.685C529.318 157.685 524.651 158.885 520.785 161.285C516.918 163.685 513.984 167.152 511.985 171.685C509.985 176.219 508.918 181.819 508.785 188.485C508.785 195.152 509.785 200.819 511.785 205.485C513.785 210.019 516.718 213.485 520.585 215.885C524.585 218.285 529.385 219.485 534.985 219.485C540.851 219.485 545.984 218.285 550.385 215.885C554.785 213.485 558.451 209.819 561.385 204.885L579.985 212.485C575.185 220.752 568.984 226.952 561.385 231.085C553.785 235.219 544.651 237.285 533.985 237.285Z" fill="white"/>
<path d="M623.002 143.285V235.285H601.602V143.285H623.002ZM650.402 166.285C648.402 164.685 646.535 163.485 644.802 162.685C643.068 161.885 640.868 161.485 638.202 161.485C634.602 161.485 631.668 162.419 629.402 164.285C627.135 166.152 625.468 168.752 624.402 172.085C623.468 175.285 623.002 179.085 623.002 183.485L615.802 179.285C615.802 171.952 617.135 165.485 619.802 159.885C622.602 154.152 626.135 149.619 630.402 146.285C634.802 142.952 639.335 141.285 644.002 141.285C647.335 141.285 650.468 141.819 653.402 142.885C656.335 143.819 658.802 145.552 660.802 148.085L650.402 166.285Z" fill="white"/>
<path d="M696.625 279.285H674.825V143.285H696.625V279.285ZM772.825 189.285C772.825 199.419 770.758 208.152 766.625 215.485C762.492 222.685 757.025 228.219 750.225 232.085C743.425 235.819 736.025 237.685 728.025 237.685C720.158 237.685 713.292 235.752 707.425 231.885C701.692 227.885 697.225 222.285 694.025 215.085C690.958 207.752 689.425 199.152 689.425 189.285C689.425 179.285 690.958 170.685 694.025 163.485C697.225 156.285 701.692 150.752 707.425 146.885C713.292 142.885 720.158 140.885 728.025 140.885C736.025 140.885 743.425 142.819 750.225 146.685C757.025 150.419 762.492 155.885 766.625 163.085C770.758 170.285 772.825 179.019 772.825 189.285ZM750.425 189.285C750.425 183.152 749.159 177.952 746.625 173.685C744.092 169.285 740.692 166.019 736.425 163.885C732.292 161.619 727.692 160.485 722.625 160.485C718.492 160.485 714.425 161.619 710.425 163.885C706.425 166.019 703.092 169.219 700.425 173.485C697.892 177.752 696.625 183.019 696.625 189.285C696.625 195.552 697.892 200.819 700.425 205.085C703.092 209.352 706.425 212.619 710.425 214.885C714.425 217.019 718.492 218.085 722.625 218.085C727.692 218.085 732.292 217.019 736.425 214.885C740.692 212.619 744.092 209.352 746.625 205.085C749.159 200.685 750.425 195.419 750.425 189.285Z" fill="white"/>
<path d="M797.599 205.085C800.532 208.285 803.465 211.085 806.399 213.485C809.465 215.752 812.532 217.485 815.599 218.685C818.665 219.752 821.732 220.285 824.799 220.285C828.665 220.285 831.665 219.419 833.799 217.685C836.065 215.952 837.199 213.552 837.199 210.485C837.199 207.819 836.332 205.552 834.599 203.685C832.865 201.685 830.465 200.019 827.399 198.685C824.332 197.219 820.732 195.752 816.599 194.285C812.465 192.685 808.332 190.819 804.199 188.685C800.199 186.419 796.865 183.485 794.199 179.885C791.665 176.285 790.399 171.752 790.399 166.285C790.399 160.685 791.799 156.019 794.599 152.285C797.532 148.552 801.399 145.819 806.199 144.085C811.132 142.219 816.399 141.285 821.999 141.285C827.065 141.285 831.799 142.019 836.199 143.485C840.732 144.952 844.799 146.885 848.399 149.285C851.999 151.685 855.065 154.419 857.599 157.485L845.599 170.285C842.532 166.685 838.865 163.752 834.599 161.485C830.332 159.219 825.932 158.085 821.399 158.085C818.332 158.085 815.799 158.752 813.799 160.085C811.799 161.419 810.799 163.352 810.799 165.885C810.799 168.019 811.665 169.952 813.399 171.685C815.265 173.285 817.665 174.752 820.599 176.085C823.665 177.419 827.065 178.819 830.799 180.285C835.865 182.285 840.532 184.485 844.799 186.885C849.065 189.285 852.465 192.219 854.999 195.685C857.665 199.152 858.999 203.685 858.999 209.285C858.999 217.952 855.999 224.952 849.999 230.285C844.132 235.485 836.132 238.085 825.999 238.085C819.732 238.085 813.932 237.152 808.599 235.285C803.399 233.285 798.799 230.752 794.799 227.685C790.932 224.485 787.665 221.152 784.999 217.685L797.599 205.085Z" fill="white"/>
<path d="M879.964 95.2852H903.964V235.285H879.964V95.2852ZM925.164 235.285H894.564V213.085H924.564C931.498 213.085 937.898 212.085 943.764 210.085C949.631 208.085 954.698 205.085 958.964 201.085C963.364 197.085 966.764 192.085 969.164 186.085C971.698 180.085 972.964 173.152 972.964 165.285C972.964 157.419 971.698 150.485 969.164 144.485C966.764 138.485 963.364 133.485 958.964 129.485C954.698 125.485 949.631 122.485 943.764 120.485C937.898 118.485 931.498 117.485 924.564 117.485H894.564V95.2852H925.164C939.431 95.2852 951.964 98.2185 962.764 104.085C973.564 109.819 981.964 117.952 987.964 128.485C994.098 138.885 997.164 151.152 997.164 165.285C997.164 179.419 994.098 191.752 987.964 202.285C981.964 212.685 973.564 220.819 962.764 226.685C951.964 232.419 939.431 235.285 925.164 235.285Z" fill="white"/>
<path d="M1030.94 199.285L1035.34 179.285H1100.34L1104.94 199.285H1030.94ZM1067.54 134.885L1045.54 186.285L1045.14 191.485L1025.74 235.285H999.144L1067.54 87.4852L1135.94 235.285H1109.34L1090.34 192.685L1089.74 186.885L1067.54 134.885Z" fill="white"/>
<path d="M1163.18 165.285C1163.18 174.885 1165.18 183.485 1169.18 191.085C1173.31 198.552 1178.98 204.419 1186.18 208.685C1193.38 212.952 1201.58 215.085 1210.78 215.085C1220.11 215.085 1228.31 212.952 1235.38 208.685C1242.58 204.419 1248.18 198.552 1252.18 191.085C1256.31 183.485 1258.38 174.885 1258.38 165.285C1258.38 155.685 1256.38 147.152 1252.38 139.685C1248.38 132.085 1242.78 126.152 1235.58 121.885C1228.51 117.619 1220.24 115.485 1210.78 115.485C1201.58 115.485 1193.38 117.619 1186.18 121.885C1178.98 126.152 1173.31 132.085 1169.18 139.685C1165.18 147.152 1163.18 155.685 1163.18 165.285ZM1138.18 165.285C1138.18 154.752 1139.98 145.085 1143.58 136.285C1147.18 127.485 1152.24 119.885 1158.78 113.485C1165.44 106.952 1173.18 101.885 1181.98 98.2852C1190.91 94.6852 1200.51 92.8852 1210.78 92.8852C1221.31 92.8852 1230.98 94.6852 1239.78 98.2852C1248.58 101.885 1256.24 106.952 1262.78 113.485C1269.44 119.885 1274.58 127.485 1278.18 136.285C1281.78 145.085 1283.58 154.752 1283.58 165.285C1283.58 175.685 1281.78 185.352 1278.18 194.285C1274.58 203.219 1269.51 210.952 1262.98 217.485C1256.44 224.019 1248.71 229.152 1239.78 232.885C1230.98 236.485 1221.31 238.285 1210.78 238.285C1200.38 238.285 1190.71 236.485 1181.78 232.885C1172.84 229.152 1165.11 224.019 1158.58 217.485C1152.18 210.952 1147.18 203.219 1143.58 194.285C1139.98 185.352 1138.18 175.685 1138.18 165.285Z" fill="white"/>
</svg>
