<svg width="20" height="20" viewBox="0 0 20 20" fill="none" xmlns="http://www.w3.org/2000/svg">
<g clip-path="url(#clip0_6402_6021)">
<path d="M10 20C15.5228 20 20 15.5228 20 10C20 4.47715 15.5228 0 10 0C4.47715 0 0 4.47715 0 10C0 15.5228 4.47715 20 10 20Z" fill="#8247E5"/>
<path d="M13.2652 7.78081C13.0252 7.64307 12.7182 7.64307 12.4467 7.78081L10.534 8.91423L9.23532 9.63442L7.35811 10.7639C7.11804 10.9016 6.81108 10.9016 6.53953 10.7639L5.07161 9.87054C4.83154 9.7328 4.66232 9.45732 4.66232 9.15035V7.43449C4.66232 7.15901 4.80006 6.88747 5.07161 6.71431L6.53953 5.85638C6.7796 5.71863 7.08656 5.71863 7.35811 5.85638L8.82603 6.74972C9.0661 6.88747 9.23532 7.16295 9.23532 7.46991V8.60333L10.534 7.84772V6.68282C10.534 6.40734 10.3963 6.13579 10.1247 5.96263L7.39353 4.34909C7.15346 4.21135 6.8465 4.21135 6.57495 4.34909L3.77684 5.99805C3.50529 6.13579 3.36755 6.41127 3.36755 6.68282V9.90596C3.36755 10.1814 3.50529 10.453 3.77684 10.6262L6.54347 12.2397C6.78353 12.3774 7.0905 12.3774 7.36204 12.2397L9.23926 11.1417L10.538 10.3861L12.4152 9.2881C12.6552 9.15035 12.9622 9.15035 13.2337 9.2881L14.7017 10.146C14.9417 10.2838 15.111 10.5592 15.111 10.8662V12.5821C15.111 12.8576 14.9732 13.1291 14.7017 13.3023L13.2692 14.1602C13.0291 14.2979 12.7221 14.2979 12.4506 14.1602L10.9787 13.3023C10.7387 13.1645 10.5694 12.889 10.5694 12.5821V11.4841L9.27074 12.2397V13.3731C9.27074 13.6486 9.40848 13.9201 9.68003 14.0933L12.4467 15.7068C12.6867 15.8446 12.9937 15.8446 13.2652 15.7068L16.0319 14.0933C16.2719 13.9556 16.4411 13.6801 16.4411 13.3731V10.1145C16.4411 9.83906 16.3034 9.56751 16.0319 9.39435L13.2652 7.78081Z" fill="white"/>
</g>
<defs>
<clipPath id="clip0_6402_6021">
<rect width="20" height="20" rx="10" fill="white"/>
</clipPath>
</defs>
</svg>
