<svg width="117" height="32" viewBox="0 0 117 32" fill="none" xmlns="http://www.w3.org/2000/svg">
<g clip-path="url(#clip0_6402_5734)">
<path fill-rule="evenodd" clip-rule="evenodd" d="M40.3142 19.5827L38.8797 17.1047H36.7794V19.5827H35.5439V12.1422H39.264C39.7176 12.1386 40.1633 12.2596 40.5529 12.4918C40.9424 12.7241 41.2606 13.0589 41.4731 13.4596C41.6855 13.8602 41.7838 14.3115 41.7574 14.7643C41.7309 15.217 41.5808 15.6539 41.3233 16.0271C41.0543 16.4231 40.6747 16.731 40.2319 16.9127L41.7625 19.5827H40.3142ZM39.264 13.4052H36.7794V15.8761H39.264C39.4265 15.876 39.587 15.8425 39.7359 15.7775C39.8846 15.7127 40.0185 15.6176 40.1289 15.4986C40.3 15.325 40.4161 15.1048 40.463 14.8656C40.5098 14.6264 40.4853 14.3786 40.3924 14.1533C40.2994 13.9279 40.1423 13.7349 39.9404 13.5981C39.7386 13.4615 39.5009 13.3872 39.2572 13.3846L39.264 13.4052ZM52.4909 12.1422L48.7638 19.5827H50.1503L52.4909 14.9221L54.8247 19.5827H56.2111L52.4909 12.1422ZM68.1954 12.1422H66.6168L64.4957 14.8877L62.3817 12.1422H60.7962L63.9055 16.1096V19.5827H65.141V16.0478L68.1954 12.1422ZM74.5239 12.1422H77.0017C77.9862 12.1494 78.9282 12.5437 79.6244 13.2398C80.3205 13.9359 80.7148 14.878 80.722 15.8625C80.7165 16.8475 80.3228 17.7905 79.6263 18.4871C78.9299 19.1836 77.9867 19.5773 77.0017 19.5827H74.5239V12.1422ZM77.0017 18.3197C77.6583 18.3179 78.2875 18.0562 78.7518 17.5919C79.2161 17.1276 79.4778 16.4985 79.4796 15.8418C79.4724 15.1869 79.209 14.5608 78.7459 14.0976C78.2828 13.6345 77.6567 13.3711 77.0017 13.3639H75.7525V18.3197H77.0017ZM88.9793 12.1422H87.7438V19.5827H88.9793V12.1422ZM102.2 16.4733C102.206 16.8826 102.129 17.2889 101.972 17.6669C101.815 18.0448 101.582 18.3863 101.286 18.6697C100.853 19.1034 100.301 19.3986 99.6996 19.5179C99.0974 19.6372 98.4749 19.5753 97.9086 19.3401C97.3423 19.1048 96.859 18.7068 96.5194 18.1964C96.1798 17.6861 95.9994 17.0863 96.001 16.4733V12.1422H97.2365V16.4733C97.2365 16.9667 97.4325 17.4398 97.7816 17.7887C98.1297 18.1375 98.6029 18.3335 99.0965 18.3335C99.59 18.3335 100.063 18.1375 100.412 17.7887C100.76 17.4398 100.956 16.9667 100.956 16.4733V12.1422H102.2V16.4733ZM110.456 19.5827V15.1349L112.948 17.6196L115.426 15.1349V19.5827H116.682V12.1422L112.948 15.8625L109.228 12.1422V19.5827H110.456Z" fill="#F1F1F2"/>
<path d="M26.3667 11.9088V22.9735L14.0597 30.0776L1.74587 22.9735V8.75833L14.0597 1.64733L23.5182 7.111L24.9459 6.28733L14.0597 0L0.318176 7.93466V23.7971L14.0597 31.7318L27.8012 23.7971V11.0852L26.3667 11.9088Z" fill="url(#paint0_linear_6402_5734)"/>
<path d="M10.6142 22.9804H8.55499V16.0753H15.4189C16.0683 16.0681 16.6887 15.8055 17.1461 15.3443C17.6034 14.8832 17.8607 14.2606 17.8625 13.6111C17.8661 13.29 17.8042 12.9715 17.6803 12.6752C17.5562 12.3789 17.3731 12.1112 17.1417 11.8883C16.9179 11.6583 16.65 11.4759 16.3539 11.3521C16.0579 11.2282 15.7398 11.1654 15.4189 11.1675H8.55499V9.06723H15.4257C16.6286 9.07444 17.7802 9.55548 18.6309 10.406C19.4814 11.2567 19.9624 12.4083 19.9696 13.6111C19.977 14.5319 19.6963 15.4319 19.1666 16.185C18.6791 16.9057 17.9922 17.4686 17.1898 17.8049C16.3952 18.057 15.566 18.182 14.7325 18.1756H10.6142V22.9804Z" fill="url(#paint1_linear_6402_5734)"/>
<path d="M19.9216 22.8087H17.5192L15.666 19.5759C16.3992 19.531 17.1224 19.3831 17.8144 19.1366L19.9216 22.8087Z" fill="url(#paint2_linear_6402_5734)"/>
<path d="M24.9321 9.60949L26.3529 10.3989L27.7738 9.60949V7.94156L26.3529 7.11789L24.9321 7.94156V9.60949Z" fill="url(#paint3_linear_6402_5734)"/>
</g>
<defs>
<linearGradient id="paint0_linear_6402_5734" x1="27.7769" y1="7.94339" x2="-1.36266" y2="19.5962" gradientUnits="userSpaceOnUse">
<stop stop-color="#C200FB"/>
<stop offset="0.489658" stop-color="#3772FF"/>
<stop offset="0.489758" stop-color="#3773FE"/>
<stop offset="1" stop-color="#5AC4BE"/>
</linearGradient>
<linearGradient id="paint1_linear_6402_5734" x1="27.777" y1="7.94342" x2="-1.36252" y2="19.5962" gradientUnits="userSpaceOnUse">
<stop stop-color="#C200FB"/>
<stop offset="0.489658" stop-color="#3772FF"/>
<stop offset="0.489758" stop-color="#3773FE"/>
<stop offset="1" stop-color="#5AC4BE"/>
</linearGradient>
<linearGradient id="paint2_linear_6402_5734" x1="27.777" y1="7.9434" x2="-1.3625" y2="19.5962" gradientUnits="userSpaceOnUse">
<stop stop-color="#C200FB"/>
<stop offset="0.489658" stop-color="#3772FF"/>
<stop offset="0.489758" stop-color="#3773FE"/>
<stop offset="1" stop-color="#5AC4BE"/>
</linearGradient>
<linearGradient id="paint3_linear_6402_5734" x1="27.7769" y1="7.94342" x2="-1.36262" y2="19.5963" gradientUnits="userSpaceOnUse">
<stop stop-color="#C200FB"/>
<stop offset="0.489658" stop-color="#3772FF"/>
<stop offset="0.489758" stop-color="#3773FE"/>
<stop offset="1" stop-color="#5AC4BE"/>
</linearGradient>
<clipPath id="clip0_6402_5734">
<rect width="116.364" height="32" fill="white" transform="translate(0.318176)"/>
</clipPath>
</defs>
</svg>
