<svg width="20" height="20" viewBox="0 0 20 20" fill="none" xmlns="http://www.w3.org/2000/svg">
<g clip-path="url(#clip0_6402_6031)">
<path fill-rule="evenodd" clip-rule="evenodd" d="M9.99444 19.9531C12.9507 19.9531 15.6066 18.6674 17.4335 16.6245C16.5836 15.8858 15.303 15.8409 14.3982 16.5711L14.2254 16.7105C12.5689 18.0471 10.1552 17.8497 8.73787 16.2617C7.96484 15.3955 6.64097 15.3072 5.75964 16.0628L3.76687 17.7712C5.47365 19.1366 7.63868 19.9531 9.99444 19.9531ZM13.2291 15.1221C14.8069 13.849 17.0246 13.8946 18.5421 15.1243C19.4492 13.6214 19.971 11.8599 19.971 9.97654C19.971 7.8838 19.3267 5.94158 18.2255 4.33742C17.5156 4.18623 16.7463 4.3628 16.1621 4.88037L15.9959 5.02768C14.4029 6.43937 11.9826 6.35357 10.4935 4.83266C9.68137 4.00317 8.35482 3.97592 7.5093 4.7714L5.1903 6.95308L3.91459 5.59709L6.23359 3.4154C7.81747 1.92529 10.3024 1.97632 11.8238 3.53018C12.6187 4.34211 13.9107 4.38791 14.7612 3.63429L14.9274 3.48698C15.4436 3.02954 16.0409 2.72114 16.6663 2.55895C14.8987 0.968137 12.5596 0 9.99444 0C4.92994 0 0.746862 3.77369 0.10364 8.66255C1.64193 7.92438 3.53939 8.20843 4.79365 9.49285C5.58547 10.3037 6.8604 10.3893 7.7535 9.69155L9.0501 8.67858C10.6796 7.40554 12.9831 7.46715 14.5422 8.82555L17.0666 11.0248L15.8436 12.4286L13.3193 10.2293C12.4327 9.45686 11.1229 9.4218 10.1963 10.1457L8.89968 11.1586C7.25882 12.4406 4.9164 12.2833 3.46164 10.7936C2.6157 9.92728 1.23215 9.89706 0.349185 10.7256L0.0686035 10.9888C0.278584 13.0726 1.12977 14.9671 2.42185 16.472L4.54787 14.6494C6.19885 13.2339 8.6788 13.3996 10.1269 15.022C10.8835 15.8697 12.172 15.9751 13.0563 15.2616L13.2291 15.1221Z" fill="url(#paint0_linear_6402_6031)"/>
</g>
<defs>
<linearGradient id="paint0_linear_6402_6031" x1="10.0031" y1="19.8689" x2="10.0031" y2="0" gradientUnits="userSpaceOnUse">
<stop stop-color="#B52A2A"/>
<stop offset="1" stop-color="#780000"/>
</linearGradient>
<clipPath id="clip0_6402_6031">
<rect width="20" height="20" fill="white"/>
</clipPath>
</defs>
</svg>
