<svg width="20" height="20" viewBox="0 0 20 20" fill="none" xmlns="http://www.w3.org/2000/svg">
<g clip-path="url(#clip0_6402_6432)">
<path d="M10 20C15.5228 20 20 15.5228 20 10C20 4.47715 15.5228 0 10 0C4.47715 0 0 4.47715 0 10C0 15.5228 4.47715 20 10 20Z" fill="black"/>
<g clip-path="url(#clip1_6402_6432)">
<path d="M5.70373 12.6133C5.78053 12.5365 5.88614 12.4917 5.99815 12.4917H16.1556C16.3413 12.4917 16.4341 12.7157 16.3029 12.8469L14.2963 14.8535C14.2195 14.9303 14.1139 14.9751 14.0019 14.9751H3.8444C3.65879 14.9751 3.56598 14.7511 3.69719 14.6198L5.70373 12.6133Z" fill="url(#paint0_linear_6402_6432)"/>
<path d="M5.70373 5.12161C5.78373 5.0448 5.88934 5 5.99815 5H16.1556C16.3413 5 16.4341 5.22402 16.3029 5.35522L14.2963 7.36176C14.2195 7.43857 14.1139 7.48337 14.0019 7.48337H3.8444C3.65879 7.48337 3.56598 7.25935 3.69719 7.12815L5.70373 5.12161Z" fill="url(#paint1_linear_6402_6432)"/>
<path d="M14.2963 8.84347C14.2195 8.76667 14.1139 8.72186 14.0019 8.72186H3.8444C3.65879 8.72186 3.56598 8.94588 3.69719 9.07709L5.70373 11.0836C5.78053 11.1604 5.88614 11.2052 5.99815 11.2052H16.1556C16.3413 11.2052 16.4341 10.9812 16.3029 10.85L14.2963 8.84347Z" fill="url(#paint2_linear_6402_6432)"/>
</g>
</g>
<defs>
<linearGradient id="paint0_linear_6402_6432" x1="15.1853" y1="3.80133" x2="8.15551" y2="17.2662" gradientUnits="userSpaceOnUse">
<stop stop-color="#00FFA3"/>
<stop offset="1" stop-color="#DC1FFF"/>
</linearGradient>
<linearGradient id="paint1_linear_6402_6432" x1="12.1115" y1="2.19656" x2="5.0817" y2="15.6614" gradientUnits="userSpaceOnUse">
<stop stop-color="#00FFA3"/>
<stop offset="1" stop-color="#DC1FFF"/>
</linearGradient>
<linearGradient id="paint2_linear_6402_6432" x1="13.6386" y1="2.99386" x2="6.60882" y2="16.4587" gradientUnits="userSpaceOnUse">
<stop stop-color="#00FFA3"/>
<stop offset="1" stop-color="#DC1FFF"/>
</linearGradient>
<clipPath id="clip0_6402_6432">
<rect width="20" height="20" rx="10" fill="white"/>
</clipPath>
<clipPath id="clip1_6402_6432">
<rect width="12.7273" height="9.97508" fill="white" transform="translate(3.63647 5)"/>
</clipPath>
</defs>
</svg>
