<svg width="20" height="20" viewBox="0 0 20 20" fill="none" xmlns="http://www.w3.org/2000/svg">
<g clip-path="url(#clip0_6402_6053)">
<path d="M12.0371 12.425L12.0396 12.4234C12.0396 12.4234 12.0371 12.425 12.0355 12.4258C12.0363 12.4258 12.0371 12.4258 12.0379 12.4258L12.0371 12.425Z" fill="white"/>
<path d="M12.0355 12.4258C8.26051 13.5597 5.13874 15.2137 3.18309 17.1508L3.0968 17.2371C3.61696 17.729 4.18712 18.1693 4.80325 18.5435L4.93551 18.3814C5.46938 17.729 6.04196 17.0992 6.63793 16.5056C8.23712 14.9121 10.0662 13.533 12.0355 12.4258Z" fill="white"/>
<path d="M12.4717 10.7452H0.00964355C0.16045 12.767 0.911256 14.621 2.08948 16.129L2.14351 16.075C3.354 14.8807 4.9298 13.7952 6.83061 12.8492C8.49674 12.0194 10.4096 11.3073 12.4717 10.7452Z" fill="white"/>
<path d="M7.69439 2.43548C11.0726 5.80161 15.3242 8.02742 19.9879 8.87177C19.4258 3.88145 15.1783 0 10.017 0C8.65406 0 7.35487 0.271774 6.16858 0.762097C6.65003 1.34194 7.16455 1.90645 7.69439 2.43629V2.43548Z" fill="white"/>
<path d="M3.18302 2.84756C5.13866 4.78789 8.26205 6.4395 12.0379 7.57579C10.0669 6.46611 8.23624 5.08789 6.63624 3.49353C6.04189 2.9016 5.47011 2.27176 4.93382 1.61772L4.80157 1.45563C4.18544 1.82982 3.61528 2.26934 3.09753 2.76127L3.18382 2.84756H3.18302Z" fill="white"/>
<path d="M7.69439 17.5629C7.16213 18.0927 6.64842 18.6573 6.16858 19.2371C7.35326 19.7274 8.65406 19.9992 10.017 19.9992C15.1783 19.9992 19.4258 16.1169 19.9895 11.125C15.3266 11.9694 11.075 14.1952 7.696 17.5613L7.69439 17.5629Z" fill="white"/>
<path d="M6.82819 7.1468V7.14842C4.929 6.20245 3.354 5.11616 2.14351 3.92342L2.08948 3.86938C0.911256 5.37745 0.16045 7.23148 0.00964355 9.25326H12.4693C10.408 8.69116 8.49674 7.97906 6.82819 7.1468Z" fill="white"/>
</g>
<defs>
<clipPath id="clip0_6402_6053">
<rect width="20" height="20" rx="6.45161" fill="white"/>
</clipPath>
</defs>
</svg>
