<svg width="20" height="20" viewBox="0 0 20 20" fill="none" xmlns="http://www.w3.org/2000/svg">
<g clip-path="url(#clip0_6402_6042)">
<mask id="mask0_6402_6042" style="mask-type:luminance" maskUnits="userSpaceOnUse" x="0" y="0" width="20" height="20">
<path d="M20 0H0V20H20V0Z" fill="white"/>
</mask>
<g mask="url(#mask0_6402_6042)">
<path d="M10 20C15.5228 20 20 15.5228 20 10C20 4.47715 15.5228 0 10 0C4.47715 0 0 4.47715 0 10C0 15.5228 4.47715 20 10 20Z" fill="#EDE9E9"/>
<path d="M14.8047 12.1095C14.8047 14.7749 12.6635 16.3672 10.0216 16.3672C7.37965 16.3672 5.54066 14.7922 5.19531 12.7845H7.63004C7.8977 13.546 8.76969 14.0998 10.0216 14.0998C11.4116 14.0998 12.4131 13.3989 12.4131 12.1527C12.4131 10.9066 11.4375 10.2662 10.013 10.2662V12.0229C7.32785 12.0229 5.27301 10.4998 5.27301 7.95559C5.27301 5.41133 7.25016 3.67188 10.0302 3.67188C12.6635 3.67188 14.4766 5.23824 14.6579 7.16805H12.3095C12.1196 6.47574 11.3512 5.94785 10.082 5.94785C8.53656 5.94785 7.68184 6.66613 7.68184 7.88633C7.68184 9.10652 8.66609 9.695 10.013 9.695V7.85172C12.9312 7.85172 14.8047 9.59981 14.8047 12.1095Z" fill="black"/>
</g>
</g>
<defs>
<clipPath id="clip0_6402_6042">
<rect width="20" height="20" fill="white"/>
</clipPath>
</defs>
</svg>
