<svg width="151" height="32" viewBox="0 0 151 32" fill="none" xmlns="http://www.w3.org/2000/svg">
<path d="M4.44212 21.9877L0.5 9.78317H2.78047L5.6683 18.9853L8.36132 9.78317H10.6647L13.3577 18.9853L16.2456 9.78317H18.526L14.5839 21.9877H12.2347L9.50728 13.0263L6.79135 21.9877H4.44212Z" fill="#02A6C2"/>
<path d="M29.3348 21.9877H27.0772V12.0407H20.7859V21.9877H18.5398V5.08472H20.7859V11.9376C20.8011 11.6396 20.8699 11.3608 20.9921 11.101C21.1144 10.8336 21.2748 10.6044 21.4734 10.4135C21.6797 10.2148 21.9165 10.062 22.1839 9.95507C22.4513 9.84047 22.7378 9.78317 23.0434 9.78317H27.0772C27.3904 9.78317 27.6846 9.84429 27.9596 9.96653C28.2346 10.0811 28.4715 10.2416 28.6701 10.4478C28.8764 10.6465 29.0368 10.8833 29.1514 11.1583C29.2736 11.4334 29.3348 11.7275 29.3348 12.0407V21.9877Z" fill="#02A6C2"/>
<path d="M30.7466 16.659C30.7466 16.3457 30.8039 16.0554 30.9185 15.788C31.0407 15.513 31.2012 15.2723 31.3998 15.0661C31.6061 14.8598 31.8467 14.6994 32.1217 14.5848C32.3968 14.4625 32.6871 14.4014 32.9927 14.4014H38.8142V12.0407H31.4456V9.78317H38.8142C39.1274 9.78317 39.4215 9.84429 39.6966 9.96653C39.9716 10.0811 40.2084 10.2416 40.4071 10.4478C40.6133 10.6465 40.7738 10.8833 40.8884 11.1583C41.0106 11.4334 41.0717 11.7275 41.0717 12.0407V21.9877H38.8142V19.925C38.7913 20.2076 38.7149 20.475 38.585 20.7271C38.4551 20.9792 38.287 21.2008 38.0808 21.3918C37.8821 21.5751 37.6529 21.7203 37.3932 21.8273C37.1334 21.9342 36.8584 21.9877 36.5681 21.9877H32.9927C32.6871 21.9877 32.3968 21.9304 32.1217 21.8158C31.8467 21.6936 31.6061 21.5331 31.3998 21.3345C31.2012 21.1282 31.0407 20.8876 30.9185 20.6125C30.8039 20.3375 30.7466 20.0434 30.7466 19.7301V16.659ZM32.9927 19.7301H38.8142V16.659H32.9927V19.7301Z" fill="#02A6C2"/>
<path d="M41.7845 9.78317H44.764V6.02441H47.0216V9.78317H51.0325V12.0407H47.0216V19.7301H51.0325V21.9877H47.0216C46.716 21.9877 46.4257 21.9304 46.1506 21.8158C45.8756 21.6936 45.635 21.5331 45.4287 21.3345C45.2224 21.1282 45.0582 20.8876 44.9359 20.6125C44.8213 20.3375 44.764 20.0434 44.764 19.7301V12.0407H41.7845V9.78317Z" fill="#02A6C2"/>
<path d="M52.3758 18.5612H55.8022V21.9876H52.3758V18.5612Z" fill="white"/>
<path d="M67.5507 17.0371H59.4716V19.7301H67.5507V21.9876H59.4716C59.166 21.9876 58.8757 21.9303 58.6007 21.8157C58.3256 21.6935 58.085 21.5331 57.8787 21.3344C57.6801 21.1282 57.5196 20.8875 57.3974 20.6125C57.2828 20.3374 57.2255 20.0433 57.2255 19.7301V12.0407C57.2255 11.7274 57.2828 11.4333 57.3974 11.1583C57.5196 10.8832 57.6801 10.6464 57.8787 10.4478C58.085 10.2415 58.3256 10.0811 58.6007 9.96646C58.8757 9.84423 59.166 9.78311 59.4716 9.78311H65.2931C65.6063 9.78311 65.9005 9.84423 66.1755 9.96646C66.4505 10.0811 66.6874 10.2415 66.886 10.4478C67.0923 10.6464 67.2527 10.8832 67.3673 11.1583C67.4895 11.4333 67.5507 11.7274 67.5507 12.0407V17.0371ZM59.4716 12.0407V14.7795H65.2931V12.0407H59.4716Z" fill="white"/>
<path d="M79.6085 9.78311L75.1736 15.7421L79.8148 21.9876H77.0874L73.8099 17.5757L70.521 21.9876H67.7936L72.4462 15.7421L68.0113 9.78311H70.7273L73.8099 13.9086L76.8811 9.78311H79.6085Z" fill="white"/>
<path d="M82.3038 12.0407V19.7301H88.1253V17.6673H90.3829V19.7301C90.3829 20.0433 90.3217 20.3374 90.1995 20.6125C90.0849 20.8875 89.9245 21.1282 89.7182 21.3344C89.5196 21.5331 89.2827 21.6935 89.0077 21.8157C88.7327 21.9303 88.4385 21.9876 88.1253 21.9876H82.3038C81.9982 21.9876 81.7079 21.9303 81.4329 21.8157C81.1578 21.6935 80.9172 21.5331 80.7109 21.3344C80.5123 21.1282 80.3519 20.8875 80.2296 20.6125C80.115 20.3374 80.0577 20.0433 80.0577 19.7301V12.0407C80.0577 11.7274 80.115 11.4333 80.2296 11.1583C80.3519 10.8832 80.5123 10.6464 80.7109 10.4478C80.9172 10.2415 81.1578 10.0811 81.4329 9.96646C81.7079 9.84423 81.9982 9.78311 82.3038 9.78311H88.1253C88.4385 9.78311 88.7327 9.84423 89.0077 9.96646C89.2827 10.0811 89.5196 10.2415 89.7182 10.4478C89.9245 10.6464 90.0849 10.8832 90.1995 11.1583C90.3217 11.4333 90.3829 11.7274 90.3829 12.0407V14.1034H88.1253V12.0407H82.3038Z" fill="white"/>
<path d="M102.601 21.9876H100.344V12.0407H94.0522V21.9876H91.8062V5.08466H94.0522V11.9375C94.0675 11.6396 94.1363 11.3607 94.2585 11.101C94.3808 10.8336 94.5412 10.6044 94.7398 10.4134C94.9461 10.2148 95.1829 10.062 95.4503 9.955C95.7177 9.84041 96.0042 9.78311 96.3098 9.78311H100.344C100.657 9.78311 100.951 9.84423 101.226 9.96646C101.501 10.0811 101.738 10.2415 101.936 10.4478C102.143 10.6464 102.303 10.8832 102.418 11.1583C102.54 11.4333 102.601 11.7274 102.601 12.0407V21.9876Z" fill="white"/>
<path d="M104.013 16.6589C104.013 16.3457 104.07 16.0554 104.185 15.788C104.307 15.5129 104.468 15.2723 104.666 15.066C104.872 14.8597 105.113 14.6993 105.388 14.5847C105.663 14.4625 105.953 14.4013 106.259 14.4013H112.081V12.0407H104.712V9.78311H112.081C112.394 9.78311 112.688 9.84423 112.963 9.96646C113.238 10.0811 113.475 10.2415 113.673 10.4478C113.88 10.6464 114.04 10.8832 114.155 11.1583C114.277 11.4333 114.338 11.7274 114.338 12.0407V21.9876H112.081V19.9249C112.058 20.2076 111.981 20.475 111.851 20.7271C111.721 20.9792 111.553 21.2007 111.347 21.3917C111.149 21.5751 110.919 21.7202 110.66 21.8272C110.4 21.9342 110.125 21.9876 109.834 21.9876H106.259C105.953 21.9876 105.663 21.9303 105.388 21.8157C105.113 21.6935 104.872 21.5331 104.666 21.3344C104.468 21.1282 104.307 20.8875 104.185 20.6125C104.07 20.3374 104.013 20.0433 104.013 19.7301V16.6589ZM106.259 19.7301H112.081V16.6589H106.259V19.7301Z" fill="white"/>
<path d="M126.556 21.9876H124.299V12.0407H118.007V21.9876H115.761V9.78311H118.007V11.9375C118.023 11.6396 118.092 11.3607 118.214 11.101C118.336 10.8336 118.496 10.6044 118.695 10.4134C118.901 10.2148 119.138 10.062 119.406 9.955C119.673 9.84041 119.959 9.78311 120.265 9.78311H124.299C124.612 9.78311 124.906 9.84423 125.181 9.96646C125.456 10.0811 125.693 10.2415 125.892 10.4478C126.098 10.6464 126.258 10.8832 126.373 11.1583C126.495 11.4333 126.556 11.7274 126.556 12.0407V21.9876Z" fill="white"/>
<path d="M127.968 12.0407C127.968 11.7274 128.026 11.4333 128.14 11.1583C128.262 10.8832 128.423 10.6464 128.621 10.4478C128.828 10.2415 129.068 10.0811 129.343 9.96646C129.618 9.84423 129.909 9.78311 130.214 9.78311H134.26C134.558 9.78311 134.84 9.84041 135.108 9.955C135.375 10.062 135.608 10.2148 135.807 10.4134C136.013 10.6044 136.177 10.8336 136.299 11.101C136.429 11.3607 136.498 11.6396 136.506 11.9375V9.78311H138.763V24.6577C138.763 24.971 138.702 25.2651 138.58 25.5401C138.465 25.8152 138.305 26.052 138.099 26.2506C137.9 26.4569 137.663 26.6173 137.388 26.7319C137.113 26.8542 136.819 26.9153 136.506 26.9153H129.378V24.6577H136.506V21.5178H130.214C129.909 21.5178 129.618 21.4605 129.343 21.3459C129.068 21.2237 128.828 21.0632 128.621 20.8646C128.423 20.6583 128.262 20.4177 128.14 20.1426C128.026 19.8676 127.968 19.5735 127.968 19.2602V12.0407ZM136.506 19.2602V12.0407H130.214V19.2602H136.506Z" fill="white"/>
<path d="M150.5 17.0371H142.421V19.7301H150.5V21.9876H142.421C142.116 21.9876 141.825 21.9303 141.55 21.8157C141.275 21.6935 141.035 21.5331 140.828 21.3344C140.63 21.1282 140.469 20.8875 140.347 20.6125C140.232 20.3374 140.175 20.0433 140.175 19.7301V12.0407C140.175 11.7274 140.232 11.4333 140.347 11.1583C140.469 10.8832 140.63 10.6464 140.828 10.4478C141.035 10.2415 141.275 10.0811 141.55 9.96646C141.825 9.84423 142.116 9.78311 142.421 9.78311H148.243C148.556 9.78311 148.85 9.84423 149.125 9.96646C149.4 10.0811 149.637 10.2415 149.836 10.4478C150.042 10.6464 150.202 10.8832 150.317 11.1583C150.439 11.4333 150.5 11.7274 150.5 12.0407V17.0371ZM142.421 12.0407V14.7795H148.243V12.0407H142.421Z" fill="white"/>
</svg>
